<?xml version="1.0" encoding="utf-8" ?>
<svg baseProfile="full" height="500.65863797125166px" version="1.1" width="704.7786379712517px" xmlns="http://www.w3.org/2000/svg" xmlns:ev="http://www.w3.org/2001/xml-events" xmlns:xlink="http://www.w3.org/1999/xlink"><defs /><path d="M 328.1866379712517 226.36326148038884 L 290.9166954764886 87.26994249476294 L 151.82337649086284 50.0 L 50.0 151.82337649086287 L 87.26994249476301 290.9166954764887 L 226.36326148038881 328.1866379712517 L 328.1866379712517 226.36326148038884 Z M 112.72578661747873 265.460851353773 L 84.77332974640646 161.1408621145536 L 161.14086211455358 84.77332974640646 L 265.4608513537729 112.72578661747868 L 293.4133082248452 217.0457758566981 L 217.04577585669807 293.4133082248452 L 112.72578661747873 265.460851353773 Z" fill="none" stroke="black" /><path d="M 319.95582178179 195.64543727355755 L 285.1824920353836 186.3279516498668 L 293.4133082248452 217.0457758566981 L 290.44447211949915 220.01461196204414 L 325.2178018659056 229.33209758573489 L 328.1866379712517 226.36326148038884 L 319.95582178179 195.64543727355755 Z M 290.9166954764886 87.26994249476294 L 280.6108712696574 84.50850522120541 L 255.15502714694173 109.96434934392114 L 265.4608513537729 112.72578661747868 L 272.0168997039061 137.19329215705392 L 297.4727438266218 111.7374480343382 L 290.9166954764886 87.26994249476294 Z M 174.65214593586808 314.33068632138486 L 166.42132974640646 283.61286211455365 L 169.39016585175256 280.64402600920755 L 134.6168361053461 271.3265403855168 L 131.648 274.2953764908629 L 139.87881618946162 305.0132006976942 L 174.65214593586808 314.33068632138486 Z M 286.32761082431 268.2222886273305 L 276.0217866174787 265.460851353773 L 269.4657382673455 240.99334581419777 L 244.0098941446298 266.4491899369135 L 250.56594249476302 290.9166954764887 L 260.87176670159425 293.67813275004625 L 286.32761082431 268.2222886273305 Z" fill="none" stroke="red" stroke-dasharray="4" /><path d="M 491.4826379712516 226.36326148038884 L 454.21269547648865 87.26994249476294 L 315.1193764908628 50.0 L 213.296 151.82337649086287 L 250.56594249476302 290.9166954764887 L 389.6592614803888 328.1866379712517 L 491.4826379712516 226.36326148038884 Z M 276.0217866174787 265.460851353773 L 248.06932974640645 161.1408621145536 L 324.4368621145536 84.77332974640646 L 428.75685135377296 112.72578661747868 L 456.7093082248452 217.0457758566981 L 380.34177585669806 293.4133082248452 L 276.0217866174787 265.460851353773 Z" fill="none" stroke="black" /><path d="M 483.25182178179 195.64543727355755 L 448.47849203538357 186.3279516498668 L 456.7093082248452 217.0457758566981 L 453.74047211949915 220.01461196204417 L 488.5138018659056 229.3320975857349 L 491.4826379712516 226.36326148038884 L 483.25182178179 195.64543727355755 Z M 454.21269547648865 87.26994249476294 L 443.9068712696575 84.50850522120541 L 418.4510271469417 109.96434934392113 L 428.75685135377296 112.72578661747868 L 435.31289970390617 137.19329215705392 L 460.76874382662186 111.73744803433821 L 454.21269547648865 87.26994249476294 Z M 255.15502714694173 109.96434934392114 L 265.4608513537729 112.72578661747868 L 272.0168997039061 137.19329215705392 L 297.4727438266218 111.7374480343382 L 290.9166954764886 87.26994249476294 L 280.6108712696574 84.50850522120541 L 255.15502714694173 109.96434934392114 Z M 231.2406119289921 218.79357993196794 L 242.78886211455358 207.24532974640647 L 261.7869887382247 212.33586243292336 L 252.46950311453395 177.56253268651687 L 233.47137649086284 172.472 L 221.92312630530137 184.0202501855615 L 231.2406119289921 218.79357993196794 Z M 250.56594249476302 290.9166954764887 L 260.87176670159425 293.6781327500463 L 286.32761082431 268.22228862733056 L 276.0217866174787 265.460851353773 L 269.4657382673455 240.9933458141978 L 244.0098941446298 266.4491899369135 L 250.56594249476302 290.9166954764887 Z M 337.94814593586807 314.33068632138486 L 329.71732974640645 283.61286211455365 L 332.68616585175255 280.64402600920755 L 297.91283610534606 271.3265403855168 L 294.94399999999996 274.2953764908629 L 303.1748161894616 305.0132006976941 L 337.94814593586807 314.33068632138486 Z M 389.6592614803888 328.1866379712517 L 401.2075116659503 316.6383877856902 L 391.89002604225954 281.8650580392838 L 380.34177585669806 293.4133082248452 L 361.34364923302695 288.3227755383283 L 370.6611348567177 323.0961052847348 L 389.6592614803888 328.1866379712517 Z M 449.62361082430994 268.2222886273305 L 439.3177866174787 265.460851353773 L 432.7617382673455 240.9933458141978 L 407.3058941446298 266.4491899369135 L 413.861942494763 290.9166954764887 L 424.16776670159425 293.67813275004625 L 449.62361082430994 268.2222886273305 Z" fill="none" stroke="red" stroke-dasharray="4" /><path d="M 654.7786379712517 226.36326148038884 L 617.5086954764886 87.26994249476294 L 478.41537649086285 50.0 L 376.592 151.82337649086287 L 413.861942494763 290.9166954764887 L 552.9552614803888 328.1866379712517 L 654.7786379712517 226.36326148038884 Z M 439.3177866174787 265.460851353773 L 411.3653297464065 161.1408621145536 L 487.7328621145536 84.77332974640646 L 592.0528513537729 112.72578661747868 L 620.0053082248452 217.0457758566981 L 543.637775856698 293.4133082248452 L 439.3177866174787 265.460851353773 Z" fill="none" stroke="black" /><path d="M 418.4510271469417 109.96434934392113 L 428.75685135377296 112.72578661747868 L 435.31289970390617 137.19329215705392 L 460.76874382662186 111.73744803433821 L 454.21269547648865 87.26994249476294 L 443.9068712696575 84.50850522120541 L 418.4510271469417 109.96434934392113 Z M 394.5366119289921 218.79357993196794 L 406.0848621145536 207.24532974640647 L 425.0829887382247 212.33586243292336 L 415.76550311453394 177.5625326865169 L 396.76737649086283 172.472 L 385.21912630530136 184.0202501855615 L 394.5366119289921 218.79357993196794 Z M 413.861942494763 290.9166954764887 L 424.16776670159425 293.67813275004625 L 449.62361082430994 268.2222886273305 L 439.3177866174787 265.460851353773 L 432.7617382673455 240.9933458141978 L 407.3058941446298 266.4491899369135 L 413.861942494763 290.9166954764887 Z M 552.9552614803888 328.1866379712517 L 564.5035116659503 316.6383877856902 L 555.1860260422595 281.8650580392838 L 543.637775856698 293.4133082248452 L 524.6396492330268 288.3227755383283 L 533.9571348567176 323.0961052847348 L 552.9552614803888 328.1866379712517 Z" fill="none" stroke="red" stroke-dasharray="4" /><path d="M 409.83463797125165 348.83526148038885 L 372.5646954764886 209.74194249476295 L 233.47137649086284 172.472 L 131.648 274.2953764908629 L 168.917942494763 413.3886954764887 L 308.01126148038884 450.65863797125166 L 409.83463797125165 348.83526148038885 Z M 194.37378661747874 387.932851353773 L 166.42132974640646 283.61286211455365 L 242.78886211455358 207.24532974640647 L 347.10885135377293 235.1977866174787 L 375.0613082248452 339.5177758566981 L 298.69377585669804 415.88530822484523 L 194.37378661747874 387.932851353773 Z" fill="none" stroke="black" /><path d="M 391.89002604225954 281.8650580392838 L 380.34177585669806 293.4133082248452 L 361.34364923302695 288.32277553832836 L 370.6611348567177 323.0961052847348 L 389.6592614803888 328.1866379712517 L 401.2075116659503 316.6383877856902 L 391.89002604225954 281.8650580392838 Z M 372.5646954764886 209.74194249476295 L 362.25887126965745 206.98050522120542 L 336.8030271469417 232.43634934392117 L 347.10885135377293 235.1977866174787 L 353.66489970390614 259.6652921570539 L 379.12074382662183 234.2094480343382 L 372.5646954764886 209.74194249476295 Z M 285.1824920353836 186.3279516498668 L 293.4133082248452 217.0457758566981 L 290.44447211949915 220.01461196204417 L 325.2178018659056 229.3320975857349 L 328.1866379712517 226.36326148038884 L 319.95582178179 195.64543727355755 L 285.1824920353836 186.3279516498668 Z M 233.47137649086284 172.472 L 221.92312630530137 184.0202501855615 L 231.2406119289921 218.79357993196794 L 242.78886211455358 207.24532974640647 L 261.7869887382247 212.33586243292336 L 252.46950311453395 177.56253268651687 L 233.47137649086284 172.472 Z M 131.648 274.2953764908629 L 139.87881618946162 305.0132006976942 L 174.65214593586808 314.33068632138486 L 166.42132974640646 283.61286211455365 L 169.39016585175256 280.64402600920755 L 134.6168361053461 271.3265403855168 L 131.648 274.2953764908629 Z M 367.9756108243099 390.6942886273306 L 357.6697866174787 387.932851353773 L 351.11373826734547 363.4653458141978 L 325.6578941446298 388.9211899369135 L 332.213942494763 413.3886954764887 L 342.5197667015942 416.1501327500462 L 367.9756108243099 390.6942886273306 Z" fill="none" stroke="red" stroke-dasharray="4" /><path d="M 573.1306379712516 348.83526148038885 L 535.8606954764886 209.74194249476295 L 396.76737649086283 172.472 L 294.94399999999996 274.2953764908629 L 332.213942494763 413.3886954764887 L 471.3072614803888 450.65863797125166 L 573.1306379712516 348.83526148038885 Z M 357.6697866174787 387.932851353773 L 329.71732974640645 283.61286211455365 L 406.0848621145536 207.24532974640647 L 510.40485135377287 235.1977866174787 L 538.3573082248452 339.5177758566981 L 461.98977585669803 415.88530822484523 L 357.6697866174787 387.932851353773 Z" fill="none" stroke="black" /><path d="M 555.1860260422595 281.8650580392838 L 543.637775856698 293.4133082248452 L 524.6396492330268 288.3227755383283 L 533.9571348567176 323.0961052847348 L 552.9552614803888 328.1866379712517 L 564.5035116659503 316.6383877856902 L 555.1860260422595 281.8650580392838 Z M 448.47849203538357 186.3279516498668 L 456.7093082248452 217.0457758566981 L 453.74047211949915 220.01461196204417 L 488.5138018659056 229.3320975857349 L 491.4826379712516 226.36326148038884 L 483.25182178179 195.64543727355755 L 448.47849203538357 186.3279516498668 Z M 396.76737649086283 172.472 L 385.21912630530136 184.0202501855615 L 394.5366119289921 218.79357993196794 L 406.0848621145536 207.24532974640647 L 425.0829887382247 212.33586243292336 L 415.76550311453394 177.5625326865169 L 396.76737649086283 172.472 Z M 336.8030271469417 232.43634934392117 L 347.10885135377293 235.1977866174787 L 353.66489970390614 259.6652921570539 L 379.12074382662183 234.2094480343382 L 372.5646954764886 209.74194249476295 L 362.25887126965745 206.98050522120542 L 336.8030271469417 232.43634934392117 Z M 294.94399999999996 274.2953764908629 L 303.1748161894616 305.0132006976941 L 337.94814593586807 314.33068632138486 L 329.71732974640645 283.61286211455365 L 332.68616585175255 280.64402600920755 L 297.91283610534606 271.3265403855168 L 294.94399999999996 274.2953764908629 Z M 332.213942494763 413.3886954764887 L 342.5197667015942 416.1501327500462 L 367.9756108243099 390.6942886273306 L 357.6697866174787 387.932851353773 L 351.1137382673455 363.4653458141978 L 325.6578941446298 388.9211899369135 L 332.213942494763 413.3886954764887 Z" fill="none" stroke="red" stroke-dasharray="4" /></svg>