<?xml version="1.0" encoding="utf-8" ?>
<svg baseProfile="full" height="923.2px" version="1.1" width="923.2px" xmlns="http://www.w3.org/2000/svg" xmlns:ev="http://www.w3.org/2001/xml-events" xmlns:xlink="http://www.w3.org/1999/xlink"><defs /><path d="M 50.0 530.0 L 530.0 530.0 L 530.0 50.0 L 50.0 50.0 L 50.0 530.0 Z M 482.0 98.0 L 482.0 482.0 L 98.0 482.0 L 98.0 98.0 L 482.0 98.0 Z" fill="none" stroke="black" stroke-width="1" /><path d="M 269.6 530.0 L 269.6 482.0 L 221.60000000000002 482.0 L 221.60000000000002 530.0 L 269.6 530.0 Z M 530.0 530.0 L 530.0 482.0 L 482.0 482.0 L 441.20000000000005 482.0 L 393.20000000000005 482.0 L 393.20000000000005 530.0 L 530.0 530.0 Z M 530.0 393.20000000000005 L 482.0 393.20000000000005 L 482.0 441.20000000000005 L 530.0 441.20000000000005 L 530.0 393.20000000000005 Z M 530.0 50.0 L 393.20000000000005 50.0 L 393.20000000000005 98.0 L 441.20000000000005 98.0 L 482.0 98.0 L 530.0 98.0 L 530.0 50.0 Z" fill="none" stroke="red" stroke-dasharray="4" stroke-width="1" /><path d="M 393.20000000000005 530.0 L 873.2 530.0 L 873.2 50.0 L 393.20000000000005 50.0 L 393.20000000000005 530.0 Z M 825.2 98.0 L 825.2 482.0 L 441.20000000000005 482.0 L 441.20000000000005 98.0 L 825.2 98.0 Z" fill="none" stroke="black" stroke-width="1" /><path d="M 530.0 530.0 L 530.0 482.0 L 482.0 482.0 L 441.20000000000005 482.0 L 393.20000000000005 482.0 L 393.20000000000005 530.0 L 530.0 530.0 Z M 701.6 530.0 L 701.6 482.0 L 653.6 482.0 L 653.6 530.0 L 701.6 530.0 Z M 393.20000000000005 50.0 L 393.20000000000005 98.0 L 441.20000000000005 98.0 L 482.0 98.0 L 530.0 98.0 L 530.0 50.0 L 393.20000000000005 50.0 Z M 393.20000000000005 441.20000000000005 L 441.20000000000005 441.20000000000005 L 441.20000000000005 393.20000000000005 L 393.20000000000005 393.20000000000005 L 393.20000000000005 441.20000000000005 Z" fill="none" stroke="red" stroke-dasharray="4" stroke-width="1" /><path d="M 221.60000000000002 873.2 L 701.6 873.2 L 701.6 393.20000000000005 L 221.60000000000002 393.20000000000005 L 221.60000000000002 873.2 Z M 653.6 441.20000000000005 L 653.6 825.2 L 269.6 825.2 L 269.6 441.20000000000005 L 653.6 441.20000000000005 Z" fill="none" stroke="black" stroke-width="1" /><path d="M 701.6 482.0 L 653.6 482.0 L 653.6 530.0 L 701.6 530.0 L 701.6 482.0 Z M 482.0 393.20000000000005 L 482.0 441.20000000000005 L 530.0 441.20000000000005 L 530.0 393.20000000000005 L 482.0 393.20000000000005 Z M 393.20000000000005 393.20000000000005 L 393.20000000000005 441.20000000000005 L 441.20000000000005 441.20000000000005 L 441.20000000000005 393.20000000000005 L 393.20000000000005 393.20000000000005 Z M 221.60000000000002 530.0 L 269.6 530.0 L 269.6 482.0 L 221.60000000000002 482.0 L 221.60000000000002 530.0 Z" fill="none" stroke="red" stroke-dasharray="4" stroke-width="1" /></svg>