<?xml version="1.0" encoding="utf-8" ?>
<svg baseProfile="full" height="439.4112549695428px" version="1.1" width="439.4112549695428px" xmlns="http://www.w3.org/2000/svg" xmlns:ev="http://www.w3.org/2001/xml-events" xmlns:xlink="http://www.w3.org/1999/xlink"><defs /><path d="M 99.70562748477141 339.7056274847714 L 339.7056274847714 339.7056274847714 L 339.7056274847714 99.70562748477141 L 99.70562748477141 99.70562748477141 L 99.70562748477141 339.7056274847714 Z M 315.7056274847714 123.70562748477141 L 315.7056274847714 315.7056274847714 L 123.70562748477141 315.7056274847714 L 123.70562748477141 123.70562748477141 L 315.7056274847714 123.70562748477141 Z" fill="none" stroke="black" stroke-width="1" /><path d="M 170.0 339.7056274847714 L 203.94112549695427 339.7056274847714 L 235.47012947258855 339.7056274847714 L 269.4112549695428 339.7056274847714 L 339.7056274847714 339.7056274847714 L 339.7056274847714 269.4112549695428 L 339.7056274847714 235.47012947258855 L 339.7056274847714 203.94112549695427 L 339.7056274847714 170.0 L 339.7056274847714 99.70562748477141 L 269.4112549695428 99.70562748477141 L 235.47012947258855 99.70562748477141 L 203.94112549695427 99.70562748477141 L 170.0 99.70562748477141 L 99.70562748477141 99.70562748477141 L 99.70562748477141 170.0 L 99.70562748477141 203.94112549695427 L 99.70562748477141 235.47012947258855 L 99.70562748477141 269.4112549695428 L 99.70562748477141 339.7056274847714 L 170.0 339.7056274847714 Z M 315.7056274847714 146.0 L 315.7056274847714 179.94112549695427 L 315.7056274847714 259.47012947258855 L 315.7056274847714 293.4112549695428 L 315.7056274847714 315.7056274847714 L 293.4112549695428 315.7056274847714 L 259.47012947258855 315.7056274847714 L 179.94112549695427 315.7056274847714 L 146.0 315.7056274847714 L 123.70562748477141 315.7056274847714 L 123.70562748477141 293.4112549695428 L 123.70562748477141 259.47012947258855 L 123.70562748477141 179.94112549695427 L 123.70562748477141 146.0 L 123.70562748477141 123.70562748477141 L 146.0 123.70562748477141 L 179.94112549695427 123.70562748477141 L 259.47012947258855 123.70562748477141 L 293.4112549695428 123.70562748477141 L 315.7056274847714 123.70562748477141 L 315.7056274847714 146.0 Z" fill="none" stroke="red" stroke-dasharray="4" stroke-width="1" /><path d="M 99.70562748477141 99.70562748477141 L 99.70562748477141 339.7056274847714 L 339.7056274847714 339.7056274847714 L 339.7056274847714 99.70562748477141 L 99.70562748477141 99.70562748477141 Z M 315.7056274847714 315.7056274847714 L 123.70562748477141 315.7056274847714 L 123.70562748477141 123.70562748477141 L 315.7056274847714 123.70562748477141 L 315.7056274847714 315.7056274847714 Z" fill="none" stroke="black" stroke-width="1" /><path d="M 99.70562748477141 170.0 L 99.70562748477141 203.94112549695427 L 99.70562748477141 235.47012947258855 L 99.70562748477141 269.4112549695428 L 99.70562748477141 339.7056274847714 L 170.0 339.7056274847714 L 203.94112549695427 339.7056274847714 L 235.47012947258855 339.7056274847714 L 269.4112549695428 339.7056274847714 L 339.7056274847714 339.7056274847714 L 339.7056274847714 269.4112549695428 L 339.7056274847714 235.47012947258855 L 339.7056274847714 203.94112549695427 L 339.7056274847714 170.0 L 339.7056274847714 99.70562748477141 L 269.4112549695428 99.70562748477141 L 235.47012947258855 99.70562748477141 L 203.94112549695427 99.70562748477141 L 170.0 99.70562748477141 L 99.70562748477141 99.70562748477141 L 99.70562748477141 170.0 Z M 293.4112549695428 315.7056274847714 L 259.47012947258855 315.7056274847714 L 179.94112549695427 315.7056274847714 L 146.0 315.7056274847714 L 123.70562748477141 315.7056274847714 L 123.70562748477141 293.4112549695428 L 123.70562748477141 259.47012947258855 L 123.70562748477141 179.94112549695427 L 123.70562748477141 146.0 L 123.70562748477141 123.70562748477141 L 146.0 123.70562748477141 L 179.94112549695427 123.70562748477141 L 259.47012947258855 123.70562748477141 L 293.4112549695428 123.70562748477141 L 315.7056274847714 123.70562748477141 L 315.7056274847714 146.0 L 315.7056274847714 179.94112549695427 L 315.7056274847714 259.47012947258855 L 315.7056274847714 293.4112549695428 L 315.7056274847714 315.7056274847714 L 293.4112549695428 315.7056274847714 Z" fill="none" stroke="red" stroke-dasharray="4" stroke-width="1" /><path d="M 99.70562748477141 339.7056274847714 L 339.7056274847714 339.7056274847714 L 339.7056274847714 99.70562748477141 L 99.70562748477141 99.70562748477141 L 99.70562748477141 339.7056274847714 Z M 315.7056274847714 123.70562748477141 L 315.7056274847714 315.7056274847714 L 123.70562748477141 315.7056274847714 L 123.70562748477141 123.70562748477141 L 315.7056274847714 123.70562748477141 Z" fill="none" stroke="black" stroke-width="1" /><path d="M 170.0 339.7056274847714 L 203.94112549695427 339.7056274847714 L 235.47012947258855 339.7056274847714 L 269.4112549695428 339.7056274847714 L 339.7056274847714 339.7056274847714 L 339.7056274847714 269.4112549695428 L 339.7056274847714 235.47012947258855 L 339.7056274847714 203.94112549695427 L 339.7056274847714 170.0 L 339.7056274847714 99.70562748477141 L 269.4112549695428 99.70562748477141 L 235.47012947258855 99.70562748477141 L 203.94112549695427 99.70562748477141 L 170.0 99.70562748477141 L 99.70562748477141 99.70562748477141 L 99.70562748477141 170.0 L 99.70562748477141 203.94112549695427 L 99.70562748477141 235.47012947258855 L 99.70562748477141 269.4112549695428 L 99.70562748477141 339.7056274847714 L 170.0 339.7056274847714 Z M 315.7056274847714 146.0 L 315.7056274847714 179.94112549695427 L 315.7056274847714 259.47012947258855 L 315.7056274847714 293.4112549695428 L 315.7056274847714 315.7056274847714 L 293.4112549695428 315.7056274847714 L 259.47012947258855 315.7056274847714 L 179.94112549695427 315.7056274847714 L 146.0 315.7056274847714 L 123.70562748477141 315.7056274847714 L 123.70562748477141 293.4112549695428 L 123.70562748477141 259.47012947258855 L 123.70562748477141 179.94112549695427 L 123.70562748477141 146.0 L 123.70562748477141 123.70562748477141 L 146.0 123.70562748477141 L 179.94112549695427 123.70562748477141 L 259.47012947258855 123.70562748477141 L 293.4112549695428 123.70562748477141 L 315.7056274847714 123.70562748477141 L 315.7056274847714 146.0 Z" fill="none" stroke="red" stroke-dasharray="4" stroke-width="1" /><path d="M 50.0 219.7056274847714 L 219.7056274847714 389.4112549695428 L 389.4112549695428 219.7056274847714 L 219.7056274847714 50.0 L 50.0 219.7056274847714 Z M 355.47012947258855 219.7056274847714 L 219.7056274847714 355.47012947258855 L 83.94112549695427 219.7056274847714 L 219.7056274847714 83.94112549695427 L 355.47012947258855 219.7056274847714 Z" fill="none" stroke="black" stroke-width="1" /><path d="M 123.70562748477141 293.4112549695428 L 123.70562748477141 259.47012947258855 L 99.70562748477141 235.47012947258855 L 99.70562748477141 269.4112549695428 L 123.70562748477141 293.4112549695428 Z M 170.0 339.7056274847714 L 203.94112549695427 339.7056274847714 L 179.94112549695427 315.7056274847714 L 146.0 315.7056274847714 L 170.0 339.7056274847714 Z M 293.4112549695428 315.7056274847714 L 259.47012947258855 315.7056274847714 L 235.47012947258855 339.7056274847714 L 269.4112549695428 339.7056274847714 L 293.4112549695428 315.7056274847714 Z M 339.7056274847714 269.4112549695428 L 339.7056274847714 235.47012947258855 L 315.7056274847714 259.47012947258855 L 315.7056274847714 293.4112549695428 L 339.7056274847714 269.4112549695428 Z M 315.7056274847714 146.0 L 315.7056274847714 179.94112549695427 L 339.7056274847714 203.94112549695427 L 339.7056274847714 170.0 L 315.7056274847714 146.0 Z M 269.4112549695428 99.70562748477141 L 235.47012947258855 99.70562748477141 L 259.47012947258855 123.70562748477141 L 293.4112549695428 123.70562748477141 L 269.4112549695428 99.70562748477141 Z M 146.0 123.70562748477141 L 179.94112549695427 123.70562748477141 L 203.94112549695427 99.70562748477141 L 170.0 99.70562748477141 L 146.0 123.70562748477141 Z M 99.70562748477141 170.0 L 99.70562748477141 203.94112549695427 L 123.70562748477141 179.94112549695427 L 123.70562748477141 146.0 L 99.70562748477141 170.0 Z" fill="none" stroke="red" stroke-dasharray="4" stroke-width="1" /></svg>