<?xml version="1.0" encoding="utf-8" ?>
<svg baseProfile="full" height="439.4112549695428px" version="1.1" width="1458.8225099390856px" xmlns="http://www.w3.org/2000/svg" xmlns:ev="http://www.w3.org/2001/xml-events" xmlns:xlink="http://www.w3.org/1999/xlink"><defs /><path d="M 50.0 219.7056274847714 L 219.7056274847714 389.4112549695428 L 389.4112549695428 219.7056274847714 L 219.7056274847714 50.0 L 50.0 219.7056274847714 Z M 355.47012947258855 219.7056274847714 L 219.7056274847714 355.47012947258855 L 83.94112549695427 219.7056274847714 L 219.7056274847714 83.94112549695427 L 355.47012947258855 219.7056274847714 Z" fill="none" stroke="black" stroke-width="1" /><path d="M 146.0 315.7056274847714 L 170.0 339.7056274847714 L 219.7056274847714 389.4112549695428 L 269.4112549695428 339.7056274847714 L 293.4112549695428 315.7056274847714 L 315.7056274847714 293.4112549695428 L 339.7056274847714 269.4112549695428 L 389.4112549695428 219.7056274847714 L 339.7056274847714 170.0 L 315.7056274847714 146.0 L 293.4112549695428 123.70562748477141 L 269.4112549695428 99.70562748477141 L 219.7056274847714 50.0 L 170.0 99.70562748477141 L 146.0 123.70562748477141 L 123.70562748477141 146.0 L 99.70562748477141 170.0 L 50.0 219.7056274847714 L 99.70562748477141 269.4112549695428 L 123.70562748477141 293.4112549695428 L 146.0 315.7056274847714 Z M 83.94112549695427 219.7056274847714 L 99.70562748477141 203.94112549695427 L 123.70562748477141 179.94112549695427 L 179.94112549695427 123.70562748477141 L 203.94112549695427 99.70562748477141 L 219.7056274847714 83.94112549695427 L 235.47012947258855 99.70562748477141 L 259.47012947258855 123.70562748477141 L 315.7056274847714 179.94112549695427 L 339.7056274847714 203.94112549695427 L 355.47012947258855 219.7056274847714 L 339.7056274847714 235.47012947258855 L 315.7056274847714 259.47012947258855 L 259.47012947258855 315.7056274847714 L 235.47012947258855 339.7056274847714 L 219.7056274847714 355.47012947258855 L 203.94112549695427 339.7056274847714 L 179.94112549695427 315.7056274847714 L 123.70562748477141 259.47012947258855 L 99.70562748477141 235.47012947258855 L 83.94112549695427 219.7056274847714 Z" fill="none" stroke="red" stroke-dasharray="4" stroke-width="1" /><path d="M 439.4112549695428 219.7056274847714 L 609.1168824543142 389.4112549695428 L 778.8225099390856 219.7056274847714 L 609.1168824543142 50.0 L 439.4112549695428 219.7056274847714 Z M 744.8813844421313 219.7056274847714 L 609.1168824543142 355.47012947258855 L 473.3523804664971 219.7056274847714 L 609.1168824543142 83.94112549695427 L 744.8813844421313 219.7056274847714 Z" fill="none" stroke="black" stroke-width="1" /><path d="M 593.3523804664972 339.7056274847714 L 624.8813844421313 339.7056274847714 L 658.8225099390856 339.7056274847714 L 729.1168824543142 339.7056274847714 L 729.1168824543142 269.4112549695428 L 729.1168824543142 235.47012947258855 L 729.1168824543142 203.94112549695427 L 729.1168824543142 170.0 L 729.1168824543142 99.70562748477141 L 658.8225099390856 99.70562748477141 L 624.8813844421313 99.70562748477141 L 593.3523804664972 99.70562748477141 L 559.4112549695428 99.70562748477141 L 489.11688245431424 99.70562748477141 L 489.11688245431424 170.0 L 489.11688245431424 203.94112549695427 L 489.11688245431424 235.47012947258855 L 489.11688245431424 269.4112549695428 L 489.11688245431424 339.7056274847714 L 559.4112549695428 339.7056274847714 L 593.3523804664972 339.7056274847714 Z M 535.4112549695428 315.7056274847714 L 513.1168824543142 315.7056274847714 L 513.1168824543142 293.4112549695428 L 513.1168824543142 259.47012947258855 L 513.1168824543142 179.94112549695427 L 513.1168824543142 146.0 L 513.1168824543142 123.70562748477141 L 535.4112549695428 123.70562748477141 L 569.3523804664972 123.70562748477141 L 648.8813844421313 123.70562748477141 L 682.8225099390856 123.70562748477141 L 705.1168824543142 123.70562748477141 L 705.1168824543142 146.0 L 705.1168824543142 179.94112549695427 L 705.1168824543142 259.47012947258855 L 705.1168824543142 293.4112549695428 L 705.1168824543142 315.7056274847714 L 682.8225099390856 315.7056274847714 L 648.8813844421313 315.7056274847714 L 569.3523804664972 315.7056274847714 L 535.4112549695428 315.7056274847714 Z" fill="none" stroke="red" stroke-dasharray="4" stroke-width="1" /><path d="M 828.8225099390856 50.0 L 828.8225099390856 290.0 L 1068.8225099390856 290.0 L 1068.8225099390856 50.0 L 828.8225099390856 50.0 Z M 1044.8225099390856 266.0 L 852.8225099390856 266.0 L 852.8225099390856 74.0 L 1044.8225099390856 74.0 L 1044.8225099390856 266.0 Z" fill="none" stroke="black" stroke-width="1" /><path d="M 1022.5281374238571 266.0 L 1044.8225099390856 243.7056274847714 L 1068.8225099390856 219.7056274847714 L 1118.528137423857 170.0 L 1068.8225099390856 120.29437251522859 L 1044.8225099390856 96.29437251522859 L 1022.5281374238571 74.0 L 998.5281374238571 50.0 L 948.8225099390856 0.29437251522858787 L 899.1168824543142 50.0 L 875.1168824543142 74.0 L 852.8225099390856 96.29437251522859 L 828.8225099390856 120.29437251522859 L 779.1168824543142 170.0 L 828.8225099390856 219.7056274847714 L 852.8225099390856 243.7056274847714 L 875.1168824543142 266.0 L 899.1168824543142 290.0 L 948.8225099390856 339.7056274847714 L 998.5281374238571 290.0 L 1022.5281374238571 266.0 Z M 909.0580079512686 266.0 L 852.8225099390856 209.76450198781714 L 828.8225099390856 185.76450198781714 L 813.0580079512686 170.0 L 828.8225099390856 154.23549801218286 L 852.8225099390856 130.23549801218286 L 909.0580079512686 74.0 L 933.0580079512686 50.0 L 948.8225099390856 34.23549801218286 L 964.5870119269027 50.0 L 988.5870119269027 74.0 L 1044.8225099390856 130.23549801218286 L 1068.8225099390856 154.23549801218286 L 1084.5870119269027 170.0 L 1068.8225099390856 185.76450198781714 L 1044.8225099390856 209.76450198781714 L 988.5870119269027 266.0 L 964.5870119269027 290.0 L 948.8225099390856 305.76450198781714 L 933.0580079512686 290.0 L 909.0580079512686 266.0 Z" fill="none" stroke="red" stroke-dasharray="4" stroke-width="1" /><path d="M 1118.8225099390856 290.0 L 1358.8225099390856 290.0 L 1358.8225099390856 50.0 L 1118.8225099390856 50.0 L 1118.8225099390856 290.0 Z M 1334.8225099390856 74.0 L 1334.8225099390856 266.0 L 1142.8225099390856 266.0 L 1142.8225099390856 74.0 L 1334.8225099390856 74.0 Z" fill="none" stroke="black" stroke-width="1" /><path d="M 1118.8225099390856 185.76450198781714 L 1118.8225099390856 219.7056274847714 L 1118.8225099390856 290.0 L 1189.1168824543142 290.0 L 1223.0580079512686 290.0 L 1254.5870119269027 290.0 L 1288.528137423857 290.0 L 1358.8225099390856 290.0 L 1358.8225099390856 219.7056274847714 L 1358.8225099390856 185.76450198781714 L 1358.8225099390856 154.23549801218286 L 1358.8225099390856 120.29437251522859 L 1358.8225099390856 50.0 L 1288.528137423857 50.0 L 1254.5870119269027 50.0 L 1223.0580079512686 50.0 L 1189.1168824543142 50.0 L 1118.8225099390856 50.0 L 1118.8225099390856 120.29437251522859 L 1118.8225099390856 154.23549801218286 L 1118.8225099390856 185.76450198781714 Z M 1142.8225099390856 74.0 L 1165.1168824543142 74.0 L 1199.0580079512686 74.0 L 1278.5870119269027 74.0 L 1312.528137423857 74.0 L 1334.8225099390856 74.0 L 1334.8225099390856 96.29437251522859 L 1334.8225099390856 130.23549801218286 L 1334.8225099390856 209.76450198781714 L 1334.8225099390856 243.7056274847714 L 1334.8225099390856 266.0 L 1312.528137423857 266.0 L 1278.5870119269027 266.0 L 1199.0580079512686 266.0 L 1165.1168824543142 266.0 L 1142.8225099390856 266.0 L 1142.8225099390856 243.7056274847714 L 1142.8225099390856 209.76450198781714 L 1142.8225099390856 130.23549801218286 L 1142.8225099390856 96.29437251522859 L 1142.8225099390856 74.0 Z" fill="none" stroke="red" stroke-dasharray="4" stroke-width="1" /></svg>