<?xml version="1.0" encoding="utf-8" ?>
<svg baseProfile="full" height="580.0px" version="1.1" width="1690.0px" xmlns="http://www.w3.org/2000/svg" xmlns:ev="http://www.w3.org/2001/xml-events" xmlns:xlink="http://www.w3.org/1999/xlink"><defs /><path d="M 50.0 530.0 L 530.0 530.0 L 530.0 50.0 L 50.0 50.0 L 50.0 530.0 Z M 482.0 98.0 L 482.0 482.0 L 98.0 482.0 L 98.0 98.0 L 482.0 98.0 Z" fill="none" stroke="black" stroke-width="1" /><path d="M 530.0 482.0 L 482.0 482.0 L 441.20000000000005 482.0 L 393.20000000000005 482.0 L 393.20000000000005 530.0 L 530.0 530.0 L 530.0 482.0 Z M 393.20000000000005 50.0 L 393.20000000000005 98.0 L 441.20000000000005 98.0 L 482.0 98.0 L 530.0 98.0 L 530.0 50.0 L 393.20000000000005 50.0 Z M 269.6 482.0 L 221.60000000000002 482.0 L 221.60000000000002 530.0 L 269.6 530.0 L 269.6 482.0 Z M 482.0 393.20000000000005 L 482.0 441.20000000000005 L 530.0 441.20000000000005 L 530.0 393.20000000000005 L 482.0 393.20000000000005 Z" fill="none" stroke="red" stroke-dasharray="4" stroke-width="1" /><path d="M 580.0 530.0 L 1060.0 530.0 L 1060.0 50.0 L 580.0 50.0 L 580.0 530.0 Z M 1012.0 98.0 L 1012.0 482.0 L 628.0 482.0 L 628.0 98.0 L 1012.0 98.0 Z" fill="none" stroke="black" stroke-width="1" /><path d="M 716.8 482.0 L 668.8 482.0 L 628.0 482.0 L 580.0 482.0 L 580.0 530.0 L 716.8 530.0 L 716.8 482.0 Z M 580.0 98.0 L 628.0 98.0 L 668.8 98.0 L 716.8 98.0 L 716.8 50.0 L 580.0 50.0 L 580.0 98.0 Z M 888.4 482.0 L 840.4 482.0 L 840.4 530.0 L 888.4 530.0 L 888.4 482.0 Z M 628.0 441.20000000000005 L 628.0 393.20000000000005 L 580.0 393.20000000000005 L 580.0 441.20000000000005 L 628.0 441.20000000000005 Z" fill="none" stroke="red" stroke-dasharray="4" stroke-width="1" /><path d="M 1110.0 530.0 L 1590.0 530.0 L 1590.0 50.0 L 1110.0 50.0 L 1110.0 530.0 Z M 1542.0 98.0 L 1542.0 482.0 L 1158.0 482.0 L 1158.0 98.0 L 1542.0 98.0 Z" fill="none" stroke="black" stroke-width="1" /><path d="M 1370.4 98.0 L 1418.4 98.0 L 1418.4 50.0 L 1370.4 50.0 L 1370.4 98.0 Z M 1158.0 186.79999999999995 L 1158.0 138.79999999999995 L 1110.0 138.79999999999995 L 1110.0 186.79999999999995 L 1158.0 186.79999999999995 Z M 1542.0 138.79999999999995 L 1542.0 186.79999999999995 L 1590.0 186.79999999999995 L 1590.0 138.79999999999995 L 1542.0 138.79999999999995 Z M 1281.6 98.0 L 1329.6 98.0 L 1329.6 50.0 L 1281.6 50.0 L 1281.6 98.0 Z" fill="none" stroke="red" stroke-dasharray="4" stroke-width="1" /></svg>