<?xml version="1.0" encoding="utf-8" ?>
<svg baseProfile="full" height="706.3732759425034px" version="1.1" width="1740.9331898562584px" xmlns="http://www.w3.org/2000/svg" xmlns:ev="http://www.w3.org/2001/xml-events" xmlns:xlink="http://www.w3.org/1999/xlink"><defs /><path d="M 328.1866379712517 226.36326148038884 L 290.9166954764886 87.26994249476294 L 151.82337649086284 50.0 L 50.0 151.82337649086287 L 87.26994249476301 290.9166954764887 L 226.36326148038881 328.1866379712517 L 328.1866379712517 226.36326148038884 Z M 112.72578661747873 265.460851353773 L 84.77332974640646 161.1408621145536 L 161.14086211455358 84.77332974640646 L 265.4608513537729 112.72578661747868 L 293.4133082248452 217.0457758566981 L 217.04577585669807 293.4133082248452 L 112.72578661747873 265.460851353773 Z" fill="none" stroke="black" /><path d="M 290.9166954764886 87.26994249476294 L 280.6108712696574 84.50850522120541 L 255.1550271469417 109.96434934392113 L 265.4608513537729 112.72578661747868 L 272.0168997039061 137.19329215705392 L 297.4727438266218 111.73744803433821 L 290.9166954764886 87.26994249476294 Z M 286.32761082431 268.22228862733056 L 276.0217866174787 265.460851353773 L 269.4657382673455 240.9933458141978 L 244.0098941446298 266.4491899369135 L 250.56594249476302 290.9166954764887 L 260.87176670159425 293.67813275004625 L 286.32761082431 268.22228862733056 Z" fill="red" stroke="red" stroke-dasharray="4" stroke-width="1" /><path d="M 319.95582178179 195.64543727355755 L 285.1824920353836 186.3279516498668 L 293.4133082248452 217.0457758566981 L 290.4444721194991 220.01461196204417 L 325.21780186590564 229.3320975857349 L 328.1866379712517 226.36326148038884 L 319.95582178179 195.64543727355755 Z M 174.6521459358681 314.33068632138486 L 166.42132974640646 283.61286211455365 L 169.39016585175256 280.64402600920755 L 134.61683610534612 271.3265403855168 L 131.648 274.2953764908629 L 139.87881618946165 305.0132006976941 L 174.6521459358681 314.33068632138486 Z" fill="red" stroke="red" stroke-dasharray="4" stroke-width="1" /><path d="M 656.3732759425034 226.36326148038884 L 619.1033334477404 87.26994249476294 L 480.01001446211455 50.0 L 378.1866379712517 151.82337649086287 L 415.4565804660147 290.9166954764887 L 554.5498994516405 328.1866379712517 L 656.3732759425034 226.36326148038884 Z M 440.9124245887304 265.460851353773 L 412.9599677176582 161.1408621145536 L 489.32750008580524 84.77332974640646 L 593.6474893250247 112.72578661747868 L 621.5999461960969 217.0457758566981 L 545.2324138279498 293.4133082248452 L 440.9124245887304 265.460851353773 Z" fill="none" stroke="black" /><path d="M 619.1033334477404 87.26994249476294 L 608.7975092409091 84.50850522120541 L 583.3416651181934 109.96434934392113 L 593.6474893250247 112.72578661747868 L 600.2035376751578 137.19329215705392 L 625.6593817978735 111.73744803433821 L 619.1033334477404 87.26994249476294 Z M 614.5142487955616 268.2222886273305 L 604.2084245887304 265.460851353773 L 597.6523762385972 240.9933458141978 L 572.1965321158815 266.4491899369135 L 578.7525804660147 290.9166954764887 L 589.0584046728459 293.67813275004625 L 614.5142487955616 268.2222886273305 Z" fill="red" stroke="red" stroke-dasharray="4" stroke-width="1" /><path d="M 396.1312499002438 218.79357993196794 L 407.6795000858053 207.24532974640647 L 426.6776267094764 212.33586243292336 L 417.36014108578564 177.5625326865169 L 398.36201446211453 172.472 L 386.81376427655306 184.0202501855615 L 396.1312499002438 218.79357993196794 Z M 554.5498994516405 328.1866379712517 L 566.0981496372019 316.6383877856902 L 556.7806640135112 281.8650580392838 L 545.2324138279498 293.4133082248452 L 526.2342872042786 288.3227755383283 L 535.5517728279694 323.0961052847348 L 554.5498994516405 328.1866379712517 Z" fill="red" stroke="red" stroke-dasharray="4" stroke-width="1" /><path d="M 648.1424597530417 195.64543727355755 L 613.3691300066353 186.3279516498668 L 621.5999461960969 217.0457758566981 L 618.6311100907508 220.01461196204417 L 653.4044398371573 229.3320975857349 L 656.3732759425034 226.36326148038884 L 648.1424597530417 195.64543727355755 Z M 502.8387839071197 314.33068632138486 L 494.6079677176581 283.61286211455365 L 497.5768038230042 280.64402600920755 L 462.80347407659775 271.3265403855168 L 459.83463797125165 274.2953764908629 L 468.0654541607133 305.0132006976941 L 502.8387839071197 314.33068632138486 Z" fill="red" stroke="red" stroke-dasharray="4" stroke-width="1" /><path d="M 656.3732759425034 530.0100144621146 L 619.1033334477404 669.1033334477404 L 480.01001446211455 706.3732759425034 L 378.1866379712517 604.5498994516405 L 415.4565804660147 465.45658046601466 L 554.5498994516405 428.1866379712517 L 656.3732759425034 530.0100144621146 Z M 440.9124245887304 490.91242458873035 L 412.9599677176582 595.2324138279498 L 489.32750008580524 671.5999461960969 L 593.6474893250247 643.6474893250247 L 621.5999461960969 539.3275000858052 L 545.2324138279498 462.9599677176582 L 440.9124245887304 490.91242458873035 Z" fill="none" stroke="black" /><path d="M 420.0456651181934 646.4089265985822 L 430.35148932502466 643.6474893250247 L 436.9075376751578 619.1799837854494 L 462.36338179787356 644.6358279081652 L 455.80733344774035 669.1033334477404 L 445.5015092409091 671.864770721298 L 420.0456651181934 646.4089265985822 Z M 415.4565804660147 465.45658046601466 L 425.76240467284595 462.6951431924571 L 451.21824879556164 488.1509873151728 L 440.9124245887304 490.91242458873035 L 434.3563762385972 515.3799301283055 L 408.9005321158815 489.92408600558986 L 415.4565804660147 465.45658046601466 Z" fill="blue" stroke="blue" stroke-dasharray="4" stroke-width="1" /><path d="M 984.559913913755 226.36326148038884 L 947.289971418992 87.26994249476294 L 808.1966524333662 50.0 L 706.3732759425034 151.82337649086287 L 743.6432184372663 290.9166954764887 L 882.7365374228922 328.1866379712517 L 984.559913913755 226.36326148038884 Z M 769.099062559982 265.460851353773 L 741.1466056889099 161.1408621145536 L 817.5141380570569 84.77332974640646 L 921.8341272962763 112.72578661747868 L 949.7865841673486 217.0457758566981 L 873.4190517992015 293.4133082248452 L 769.099062559982 265.460851353773 Z" fill="none" stroke="black" /><path d="M 724.3178878714955 218.79357993196794 L 735.866138057057 207.24532974640647 L 754.8642646807281 212.33586243292336 L 745.5467790570374 177.5625326865169 L 726.5486524333662 172.472 L 715.0004022478047 184.0202501855615 L 724.3178878714955 218.79357993196794 Z M 882.7365374228922 328.1866379712517 L 894.2847876084536 316.6383877856902 L 884.9673019847629 281.8650580392838 L 873.4190517992015 293.4133082248452 L 854.4209251755303 288.3227755383283 L 863.738410799221 323.0961052847348 L 882.7365374228922 328.1866379712517 Z" fill="red" stroke="red" stroke-dasharray="4" stroke-width="1" /><path d="M 984.559913913755 530.0100144621146 L 947.289971418992 669.1033334477404 L 808.1966524333662 706.3732759425034 L 706.3732759425034 604.5498994516405 L 743.6432184372663 465.45658046601466 L 882.7365374228922 428.1866379712517 L 984.559913913755 530.0100144621146 Z M 769.099062559982 490.91242458873035 L 741.1466056889099 595.2324138279498 L 817.5141380570569 671.5999461960969 L 921.8341272962763 643.6474893250247 L 949.7865841673486 539.3275000858052 L 873.4190517992015 462.9599677176582 L 769.099062559982 490.91242458873035 Z" fill="none" stroke="black" /><path d="M 748.2323030894452 646.4089265985822 L 758.5381272962763 643.6474893250247 L 765.0941756464096 619.1799837854494 L 790.5500197691252 644.6358279081651 L 783.993971418992 669.1033334477404 L 773.6881472121609 671.864770721298 L 748.2323030894452 646.4089265985822 Z M 743.6432184372663 465.45658046601466 L 753.9490426440976 462.6951431924571 L 779.4048867668133 488.15098731517287 L 769.099062559982 490.91242458873035 L 762.5430142098489 515.3799301283055 L 737.0871700871332 489.92408600558986 L 743.6432184372663 465.45658046601466 Z" fill="blue" stroke="blue" stroke-dasharray="4" stroke-width="1" /><path d="M 1312.7465518850067 226.36326148038884 L 1275.4766093902435 87.26994249476294 L 1136.3832904046178 50.0 L 1034.5599139137548 151.8233764908629 L 1071.829856408518 290.9166954764887 L 1210.9231753941438 328.1866379712517 L 1312.7465518850067 226.36326148038884 Z M 1097.2857005312337 265.460851353773 L 1069.3332436601613 161.1408621145536 L 1145.7007760283086 84.77332974640646 L 1250.0207652675278 112.72578661747868 L 1277.9732221386002 217.0457758566981 L 1201.605689770453 293.4133082248452 L 1097.2857005312337 265.460851353773 Z" fill="none" stroke="black" /><path d="M 1275.4766093902435 87.26994249476294 L 1265.1707851834124 84.50850522120541 L 1239.7149410606967 109.96434934392113 L 1250.0207652675278 112.72578661747868 L 1256.5768136176612 137.19329215705392 L 1282.0326577403769 111.7374480343382 L 1275.4766093902435 87.26994249476294 Z M 1270.887524738065 268.22228862733056 L 1260.5817005312335 265.460851353773 L 1254.0256521811004 240.9933458141978 L 1228.5698080583848 266.4491899369135 L 1235.1258564085178 290.9166954764887 L 1245.4316806153493 293.67813275004625 L 1270.887524738065 268.22228862733056 Z" fill="red" stroke="red" stroke-dasharray="4" stroke-width="1" /><path d="M 1312.7465518850067 530.0100144621146 L 1275.4766093902435 669.1033334477404 L 1136.3832904046178 706.3732759425034 L 1034.5599139137548 604.5498994516405 L 1071.829856408518 465.45658046601466 L 1210.9231753941438 428.1866379712517 L 1312.7465518850067 530.0100144621146 Z M 1097.2857005312337 490.91242458873035 L 1069.3332436601613 595.2324138279498 L 1145.7007760283086 671.5999461960969 L 1250.0207652675278 643.6474893250247 L 1277.9732221386002 539.3275000858052 L 1201.605689770453 462.9599677176582 L 1097.2857005312337 490.91242458873035 Z" fill="none" stroke="black" /><path d="M 1188.0944059491385 692.5173242926367 L 1196.3252221386 661.7995000858052 L 1193.356386033254 658.8306639804592 L 1228.1297157796605 649.5131783567685 L 1231.0985518850066 652.4820144621145 L 1222.867735695545 683.1998386689459 L 1188.0944059491385 692.5173242926367 Z M 1034.5599139137548 604.5498994516405 L 1042.7907301032167 573.8320752448092 L 1077.564059849623 564.5145896211185 L 1069.3332436601613 595.2324138279498 L 1072.3020797655074 598.2012499332959 L 1037.5287500191012 607.5187355569866 L 1034.5599139137548 604.5498994516405 Z" fill="blue" stroke="blue" stroke-dasharray="4" stroke-width="1" /><path d="M 1294.8019399560144 596.9802179032197 L 1283.253689770453 585.4319677176582 L 1264.255563146782 590.522500404175 L 1273.5730487704727 555.7491706577686 L 1292.5711753941437 550.6586379712517 L 1304.1194255797052 562.2068881568132 L 1294.8019399560144 596.9802179032197 Z M 1136.3832904046178 706.3732759425034 L 1124.8350402190563 694.8250257569418 L 1134.152525842747 660.0516960105354 L 1145.7007760283086 671.5999461960969 L 1164.6989026519796 666.50941350958 L 1155.381417028289 701.2827432559865 L 1136.3832904046178 706.3732759425034 Z" fill="blue" stroke="blue" stroke-dasharray="4" stroke-width="1" /><path d="M 1640.9331898562587 226.36326148038884 L 1603.6632473614955 87.26994249476294 L 1464.5699283758697 50.0 L 1362.7465518850067 151.8233764908629 L 1400.01649437977 290.9166954764887 L 1539.1098133653957 328.1866379712517 L 1640.9331898562587 226.36326148038884 Z M 1425.4723385024856 265.460851353773 L 1397.5198816314132 161.1408621145536 L 1473.8874139995605 84.77332974640646 L 1578.2074032387798 112.72578661747868 L 1606.1598601098522 217.0457758566981 L 1529.7923277417049 293.4133082248452 L 1425.4723385024856 265.460851353773 Z" fill="none" stroke="black" /><path d="M 1640.9331898562587 530.0100144621146 L 1603.6632473614955 669.1033334477404 L 1464.5699283758697 706.3732759425034 L 1362.7465518850067 604.5498994516405 L 1400.01649437977 465.45658046601466 L 1539.1098133653957 428.1866379712517 L 1640.9331898562587 530.0100144621146 Z M 1425.4723385024856 490.91242458873035 L 1397.5198816314132 595.2324138279498 L 1473.8874139995605 671.5999461960969 L 1578.2074032387798 643.6474893250247 L 1606.1598601098522 539.3275000858052 L 1529.7923277417049 462.9599677176582 L 1425.4723385024856 490.91242458873035 Z" fill="none" stroke="black" /><path d="M 1516.2810439203904 692.5173242926365 L 1524.511860109852 661.7995000858052 L 1521.543024004506 658.8306639804592 L 1556.3163537509124 649.5131783567685 L 1559.2851898562585 652.4820144621145 L 1551.054373666797 683.1998386689459 L 1516.2810439203904 692.5173242926365 Z M 1362.7465518850067 604.5498994516405 L 1370.9773680744686 573.8320752448093 L 1405.7506978208748 564.5145896211185 L 1397.5198816314132 595.2324138279498 L 1400.4887177367593 598.2012499332959 L 1365.715387990353 607.5187355569866 L 1362.7465518850067 604.5498994516405 Z" fill="blue" stroke="blue" stroke-dasharray="4" stroke-width="1" /><path d="M 1622.9885779272663 596.9802179032197 L 1611.440327741705 585.4319677176582 L 1592.4422011180338 590.522500404175 L 1601.7596867417246 555.7491706577686 L 1620.7578133653956 550.6586379712517 L 1632.306063550957 562.2068881568132 L 1622.9885779272663 596.9802179032197 Z M 1464.5699283758697 706.3732759425034 L 1453.0216781903082 694.8250257569418 L 1462.339163813999 660.0516960105355 L 1473.8874139995605 671.5999461960969 L 1492.8855406232317 666.50941350958 L 1483.568054999541 701.2827432559865 L 1464.5699283758697 706.3732759425034 Z" fill="blue" stroke="blue" stroke-dasharray="4" stroke-width="1" /><path d="M 1404.6055790319485 646.4089265985822 L 1414.9114032387797 643.6474893250247 L 1421.467451588913 619.1799837854494 L 1446.9232957116287 644.6358279081652 L 1440.3672473614956 669.1033334477404 L 1430.0614231546642 671.864770721298 L 1404.6055790319485 646.4089265985822 Z M 1400.01649437977 465.45658046601466 L 1410.322318586601 462.6951431924571 L 1435.7781627093168 488.1509873151728 L 1425.4723385024856 490.91242458873035 L 1418.9162901523523 515.3799301283055 L 1393.4604460296366 489.92408600558986 L 1400.01649437977 465.45658046601466 Z" fill="blue" stroke="blue" stroke-dasharray="4" stroke-width="1" /></svg>