<?xml version="1.0" encoding="utf-8" ?>
<svg baseProfile="full" height="440px" version="1.1" width="440px" xmlns="http://www.w3.org/2000/svg" xmlns:ev="http://www.w3.org/2001/xml-events" xmlns:xlink="http://www.w3.org/1999/xlink"><defs /><path d="M 50 50 L 130 50 L 130 80.0 L 110.25 80.0 L 110.25 100.0 L 130 100.0 L 130 130 L 100.0 130 L 100.0 150.25 L 80.0 150.25 L 80.0 130 L 50 130 L 50 50 Z" fill="none" stroke="black" stroke-width="1" /><path d="M 130 50 L 210 50 L 210 80.0 L 190.25 80.0 L 190.25 100.0 L 210 100.0 L 210 130 L 180.0 130 L 180.0 110.25 L 160.0 110.25 L 160.0 130 L 130 130 L 130 100.0 L 109.75 100.0 L 109.75 80.0 L 130 80.0 L 130 50 Z" fill="none" stroke="black" stroke-width="1" /><path d="M 210 50 L 290 50 L 290 130 L 260.0 130 L 260.0 150.25 L 240.0 150.25 L 240.0 130 L 210 130 L 210 100.0 L 189.75 100.0 L 189.75 80.0 L 210 80.0 L 210 50 Z" fill="none" stroke="black" stroke-width="1" /><path d="M 50 130 L 80.0 130 L 80.0 149.75 L 100.0 149.75 L 100.0 130 L 130 130 L 130 160.0 L 110.25 160.0 L 110.25 180.0 L 130 180.0 L 130 210 L 100.0 210 L 100.0 230.25 L 80.0 230.25 L 80.0 210 L 50 210 L 50 130 Z" fill="none" stroke="black" stroke-width="1" /><path d="M 130 130 L 160.0 130 L 160.0 109.75 L 180.0 109.75 L 180.0 130 L 210 130 L 210 160.0 L 230.25 160.0 L 230.25 180.0 L 210 180.0 L 210 210 L 180.0 210 L 180.0 190.25 L 160.0 190.25 L 160.0 210 L 130 210 L 130 180.0 L 109.75 180.0 L 109.75 160.0 L 130 160.0 L 130 130 Z" fill="none" stroke="black" stroke-width="1" /><path d="M 210 130 L 240.0 130 L 240.0 149.75 L 260.0 149.75 L 260.0 130 L 290 130 L 290 210 L 260.0 210 L 260.0 230.25 L 240.0 230.25 L 240.0 210 L 210 210 L 210 180.0 L 229.75 180.0 L 229.75 160.0 L 210 160.0 L 210 130 Z" fill="none" stroke="black" stroke-width="1" /><path d="M 50 210 L 80.0 210 L 80.0 229.75 L 100.0 229.75 L 100.0 210 L 130 210 L 130 240.0 L 150.25 240.0 L 150.25 260.0 L 130 260.0 L 130 290 L 50 290 L 50 210 Z" fill="none" stroke="black" stroke-width="1" /><path d="M 130 210 L 160.0 210 L 160.0 189.75 L 180.0 189.75 L 180.0 210 L 210 210 L 210 240.0 L 190.25 240.0 L 190.25 260.0 L 210 260.0 L 210 290 L 130 290 L 130 260.0 L 149.75 260.0 L 149.75 240.0 L 130 240.0 L 130 210 Z" fill="none" stroke="black" stroke-width="1" /><path d="M 210 210 L 240.0 210 L 240.0 229.75 L 260.0 229.75 L 260.0 210 L 290 210 L 290 290 L 210 290 L 210 260.0 L 189.75 260.0 L 189.75 240.0 L 210 240.0 L 210 210 Z" fill="none" stroke="black" stroke-width="1" /></svg>